<mxfile host="app.diagrams.net" modified="2021-07-20T12:18:15.903Z" agent="5.0 (Windows NT 10.0; Win64; x64) AppleWebKit/537.36 (KHTML, like Gecko) Chrome/91.0.4472.164 Safari/537.36" etag="ZdiTQLKolESteD410A7d" version="14.9.0" type="github" pages="2">
  <diagram id="PE5aDVBCW2WV5xDOKwPA" name="Page-1">
    <mxGraphModel dx="1662" dy="798" grid="1" gridSize="10" guides="1" tooltips="1" connect="1" arrows="1" fold="1" page="1" pageScale="1" pageWidth="1100" pageHeight="850" math="0" shadow="0">
      <root>
        <mxCell id="0" />
        <mxCell id="1" parent="0" />
        <mxCell id="Jm8fiYk7XBeX_RendoB4-72" value="" style="rounded=0;whiteSpace=wrap;html=1;fillColor=#FFFFFF;dashed=1;strokeColor=#0000FF;" parent="1" vertex="1">
          <mxGeometry x="280" y="130" width="720" height="500" as="geometry" />
        </mxCell>
        <mxCell id="Jm8fiYk7XBeX_RendoB4-49" value="" style="rounded=0;whiteSpace=wrap;html=1;dashed=1;" parent="1" vertex="1">
          <mxGeometry x="500" y="407" width="300" height="193" as="geometry" />
        </mxCell>
        <mxCell id="Jm8fiYk7XBeX_RendoB4-39" style="edgeStyle=orthogonalEdgeStyle;rounded=0;orthogonalLoop=1;jettySize=auto;html=1;" parent="1" source="Jm8fiYk7XBeX_RendoB4-3" target="Jm8fiYk7XBeX_RendoB4-5" edge="1">
          <mxGeometry relative="1" as="geometry">
            <Array as="points">
              <mxPoint x="240" y="195" />
            </Array>
          </mxGeometry>
        </mxCell>
        <mxCell id="Jm8fiYk7XBeX_RendoB4-3" value="Client &lt;br&gt;Gateway" style="rounded=0;whiteSpace=wrap;html=1;" parent="1" vertex="1">
          <mxGeometry x="150" y="330" width="120" height="60" as="geometry" />
        </mxCell>
        <mxCell id="Jm8fiYk7XBeX_RendoB4-20" style="edgeStyle=orthogonalEdgeStyle;rounded=0;orthogonalLoop=1;jettySize=auto;html=1;entryX=0;entryY=0.5;entryDx=0;entryDy=0;" parent="1" source="Jm8fiYk7XBeX_RendoB4-5" target="Jm8fiYk7XBeX_RendoB4-6" edge="1">
          <mxGeometry relative="1" as="geometry" />
        </mxCell>
        <mxCell id="Jm8fiYk7XBeX_RendoB4-63" style="edgeStyle=orthogonalEdgeStyle;rounded=0;orthogonalLoop=1;jettySize=auto;html=1;entryX=0.5;entryY=0;entryDx=0;entryDy=0;" parent="1" source="Jm8fiYk7XBeX_RendoB4-5" target="Jm8fiYk7XBeX_RendoB4-61" edge="1">
          <mxGeometry relative="1" as="geometry" />
        </mxCell>
        <mxCell id="Jm8fiYk7XBeX_RendoB4-5" value="" style="outlineConnect=0;fontColor=#232F3E;gradientColor=none;fillColor=#5A30B5;strokeColor=none;dashed=0;verticalLabelPosition=bottom;verticalAlign=top;align=center;html=1;fontSize=12;fontStyle=0;aspect=fixed;pointerEvents=1;shape=mxgraph.aws4.gateway_load_balancer;" parent="1" vertex="1">
          <mxGeometry x="320" y="156" width="78" height="78" as="geometry" />
        </mxCell>
        <mxCell id="Jm8fiYk7XBeX_RendoB4-6" value="Ranking Service" style="rounded=0;whiteSpace=wrap;html=1;" parent="1" vertex="1">
          <mxGeometry x="450" y="150" width="120" height="60" as="geometry" />
        </mxCell>
        <mxCell id="Jm8fiYk7XBeX_RendoB4-8" value="Ranking Service" style="rounded=0;whiteSpace=wrap;html=1;" parent="1" vertex="1">
          <mxGeometry x="460" y="160" width="120" height="60" as="geometry" />
        </mxCell>
        <mxCell id="Jm8fiYk7XBeX_RendoB4-9" value="Ranking Service" style="rounded=0;whiteSpace=wrap;html=1;" parent="1" vertex="1">
          <mxGeometry x="470" y="170" width="120" height="60" as="geometry" />
        </mxCell>
        <mxCell id="Jm8fiYk7XBeX_RendoB4-64" style="edgeStyle=orthogonalEdgeStyle;rounded=0;orthogonalLoop=1;jettySize=auto;html=1;entryX=1;entryY=0.25;entryDx=0;entryDy=0;" parent="1" source="Jm8fiYk7XBeX_RendoB4-10" target="Jm8fiYk7XBeX_RendoB4-61" edge="1">
          <mxGeometry relative="1" as="geometry">
            <Array as="points">
              <mxPoint x="510" y="250" />
              <mxPoint x="450" y="250" />
              <mxPoint x="450" y="285" />
            </Array>
          </mxGeometry>
        </mxCell>
        <mxCell id="Jm8fiYk7XBeX_RendoB4-10" value="Product Ranking Service" style="rounded=0;whiteSpace=wrap;html=1;" parent="1" vertex="1">
          <mxGeometry x="480" y="180" width="120" height="60" as="geometry" />
        </mxCell>
        <mxCell id="Jm8fiYk7XBeX_RendoB4-55" style="edgeStyle=orthogonalEdgeStyle;rounded=0;orthogonalLoop=1;jettySize=auto;html=1;" parent="1" source="Jm8fiYk7XBeX_RendoB4-11" target="Jm8fiYk7XBeX_RendoB4-10" edge="1">
          <mxGeometry relative="1" as="geometry" />
        </mxCell>
        <mxCell id="Jm8fiYk7XBeX_RendoB4-11" value="" style="aspect=fixed;html=1;points=[];align=center;image;fontSize=12;image=img/lib/mscae/Cache_Redis_Product.svg;" parent="1" vertex="1">
          <mxGeometry x="450" y="300" width="83.33" height="70" as="geometry" />
        </mxCell>
        <mxCell id="Jm8fiYk7XBeX_RendoB4-52" style="edgeStyle=orthogonalEdgeStyle;rounded=0;orthogonalLoop=1;jettySize=auto;html=1;entryX=1;entryY=0.5;entryDx=0;entryDy=0;entryPerimeter=0;" parent="1" source="Jm8fiYk7XBeX_RendoB4-13" target="S1BR4_-P_bx4bsNWqFX8-2" edge="1">
          <mxGeometry relative="1" as="geometry">
            <mxPoint x="473.03600000000006" y="488.96799999999996" as="targetPoint" />
          </mxGeometry>
        </mxCell>
        <mxCell id="Jm8fiYk7XBeX_RendoB4-13" value="ProductRankDB" style="aspect=fixed;html=1;points=[];align=center;image;fontSize=12;image=img/lib/azure2/databases/Azure_Database_PostgreSQL_Server.svg;" parent="1" vertex="1">
          <mxGeometry x="540" y="440" width="78" height="104" as="geometry" />
        </mxCell>
        <mxCell id="Jm8fiYk7XBeX_RendoB4-24" style="edgeStyle=orthogonalEdgeStyle;rounded=0;orthogonalLoop=1;jettySize=auto;html=1;exitX=0.75;exitY=0;exitDx=0;exitDy=0;" parent="1" source="Jm8fiYk7XBeX_RendoB4-65" target="Jm8fiYk7XBeX_RendoB4-15" edge="1">
          <mxGeometry relative="1" as="geometry">
            <mxPoint x="770" y="296" as="sourcePoint" />
            <Array as="points">
              <mxPoint x="770" y="210" />
              <mxPoint x="957" y="210" />
              <mxPoint x="957" y="161" />
            </Array>
          </mxGeometry>
        </mxCell>
        <mxCell id="Jm8fiYk7XBeX_RendoB4-25" style="edgeStyle=orthogonalEdgeStyle;rounded=0;orthogonalLoop=1;jettySize=auto;html=1;exitX=0.5;exitY=1;exitDx=0;exitDy=0;" parent="1" source="Jm8fiYk7XBeX_RendoB4-65" target="Jm8fiYk7XBeX_RendoB4-17" edge="1">
          <mxGeometry relative="1" as="geometry">
            <mxPoint x="730" y="356" as="sourcePoint" />
          </mxGeometry>
        </mxCell>
        <mxCell id="Jm8fiYk7XBeX_RendoB4-38" style="edgeStyle=orthogonalEdgeStyle;rounded=0;orthogonalLoop=1;jettySize=auto;html=1;" parent="1" target="Jm8fiYk7XBeX_RendoB4-13" edge="1">
          <mxGeometry relative="1" as="geometry">
            <mxPoint x="670" y="326" as="sourcePoint" />
            <Array as="points">
              <mxPoint x="580" y="326" />
              <mxPoint x="580" y="492" />
            </Array>
          </mxGeometry>
        </mxCell>
        <mxCell id="Jm8fiYk7XBeX_RendoB4-15" value="Dropbox" style="dashed=0;outlineConnect=0;html=1;align=center;labelPosition=center;verticalLabelPosition=bottom;verticalAlign=top;shape=mxgraph.weblogos.dropbox;fillColor=#0287EA" parent="1" vertex="1">
          <mxGeometry x="1018" y="130" width="73.4" height="62" as="geometry" />
        </mxCell>
        <mxCell id="Jm8fiYk7XBeX_RendoB4-31" style="edgeStyle=orthogonalEdgeStyle;rounded=0;orthogonalLoop=1;jettySize=auto;html=1;entryX=0.5;entryY=0.98;entryDx=0;entryDy=0;entryPerimeter=0;" parent="1" source="Jm8fiYk7XBeX_RendoB4-16" target="Jm8fiYk7XBeX_RendoB4-27" edge="1">
          <mxGeometry relative="1" as="geometry" />
        </mxCell>
        <mxCell id="Jm8fiYk7XBeX_RendoB4-16" value="MasterProductDB" style="aspect=fixed;html=1;points=[];align=center;image;fontSize=12;image=img/lib/azure2/databases/Azure_Database_PostgreSQL_Server.svg;" parent="1" vertex="1">
          <mxGeometry x="801" y="636" width="78" height="104" as="geometry" />
        </mxCell>
        <mxCell id="Jm8fiYk7XBeX_RendoB4-17" value="BatchJobDB" style="aspect=fixed;html=1;points=[];align=center;image;fontSize=12;image=img/lib/azure2/databases/Azure_Database_PostgreSQL_Server.svg;" parent="1" vertex="1">
          <mxGeometry x="691" y="440" width="78" height="104" as="geometry" />
        </mxCell>
        <mxCell id="Jm8fiYk7XBeX_RendoB4-36" style="edgeStyle=orthogonalEdgeStyle;rounded=0;orthogonalLoop=1;jettySize=auto;html=1;entryX=1;entryY=0.5;entryDx=0;entryDy=0;" parent="1" source="Jm8fiYk7XBeX_RendoB4-18" edge="1">
          <mxGeometry relative="1" as="geometry">
            <mxPoint x="790" y="326" as="targetPoint" />
            <Array as="points">
              <mxPoint x="957" y="326" />
            </Array>
          </mxGeometry>
        </mxCell>
        <mxCell id="Jm8fiYk7XBeX_RendoB4-18" value="" style="outlineConnect=0;dashed=0;verticalLabelPosition=bottom;verticalAlign=top;align=center;html=1;shape=mxgraph.aws3.queue;fillColor=#D9A741;gradientColor=none;rotation=89;" parent="1" vertex="1">
          <mxGeometry x="920" y="440" width="73.5" height="48" as="geometry" />
        </mxCell>
        <mxCell id="Jm8fiYk7XBeX_RendoB4-26" style="edgeStyle=orthogonalEdgeStyle;rounded=0;orthogonalLoop=1;jettySize=auto;html=1;" parent="1" source="Jm8fiYk7XBeX_RendoB4-19" target="Jm8fiYk7XBeX_RendoB4-16" edge="1">
          <mxGeometry relative="1" as="geometry" />
        </mxCell>
        <mxCell id="Jm8fiYk7XBeX_RendoB4-35" style="edgeStyle=orthogonalEdgeStyle;rounded=0;orthogonalLoop=1;jettySize=auto;html=1;" parent="1" source="Jm8fiYk7XBeX_RendoB4-19" target="Jm8fiYk7XBeX_RendoB4-18" edge="1">
          <mxGeometry relative="1" as="geometry">
            <Array as="points">
              <mxPoint x="679" y="776" />
              <mxPoint x="957" y="776" />
            </Array>
          </mxGeometry>
        </mxCell>
        <mxCell id="Jm8fiYk7XBeX_RendoB4-19" value="Master Product Service" style="rounded=0;whiteSpace=wrap;html=1;" parent="1" vertex="1">
          <mxGeometry x="600" y="696" width="120" height="60" as="geometry" />
        </mxCell>
        <mxCell id="Jm8fiYk7XBeX_RendoB4-67" style="edgeStyle=orthogonalEdgeStyle;rounded=0;orthogonalLoop=1;jettySize=auto;html=1;entryX=1;entryY=0.75;entryDx=0;entryDy=0;" parent="1" source="Jm8fiYk7XBeX_RendoB4-27" target="Jm8fiYk7XBeX_RendoB4-65" edge="1">
          <mxGeometry relative="1" as="geometry" />
        </mxCell>
        <mxCell id="Jm8fiYk7XBeX_RendoB4-27" value="view" style="html=1;aspect=fixed;strokeColor=none;shadow=0;align=center;verticalAlign=top;fillColor=#3B8DF1;shape=mxgraph.gcp2.view_list" parent="1" vertex="1">
          <mxGeometry x="830" y="544" width="40.5" height="50" as="geometry" />
        </mxCell>
        <mxCell id="Jm8fiYk7XBeX_RendoB4-43" style="edgeStyle=orthogonalEdgeStyle;rounded=0;orthogonalLoop=1;jettySize=auto;html=1;entryX=0;entryY=0.75;entryDx=0;entryDy=0;" parent="1" source="Jm8fiYk7XBeX_RendoB4-40" target="Jm8fiYk7XBeX_RendoB4-3" edge="1">
          <mxGeometry relative="1" as="geometry" />
        </mxCell>
        <mxCell id="Jm8fiYk7XBeX_RendoB4-40" value="" style="outlineConnect=0;fontColor=#232F3E;gradientColor=none;fillColor=#232F3E;strokeColor=none;dashed=0;verticalLabelPosition=bottom;verticalAlign=top;align=center;html=1;fontSize=12;fontStyle=0;aspect=fixed;pointerEvents=1;shape=mxgraph.aws4.mobile_client;" parent="1" vertex="1">
          <mxGeometry x="50" y="417" width="31.54" height="60" as="geometry" />
        </mxCell>
        <mxCell id="Jm8fiYk7XBeX_RendoB4-44" style="edgeStyle=orthogonalEdgeStyle;rounded=0;orthogonalLoop=1;jettySize=auto;html=1;entryX=0;entryY=0.5;entryDx=0;entryDy=0;" parent="1" source="Jm8fiYk7XBeX_RendoB4-41" target="Jm8fiYk7XBeX_RendoB4-3" edge="1">
          <mxGeometry relative="1" as="geometry" />
        </mxCell>
        <mxCell id="Jm8fiYk7XBeX_RendoB4-41" value="" style="verticalLabelPosition=bottom;aspect=fixed;html=1;verticalAlign=top;strokeColor=none;align=center;outlineConnect=0;shape=mxgraph.citrix.laptop_2;" parent="1" vertex="1">
          <mxGeometry x="25.77" y="320" width="76.77" height="57.25" as="geometry" />
        </mxCell>
        <mxCell id="Jm8fiYk7XBeX_RendoB4-45" style="edgeStyle=orthogonalEdgeStyle;rounded=0;orthogonalLoop=1;jettySize=auto;html=1;entryX=0;entryY=0.25;entryDx=0;entryDy=0;" parent="1" source="Jm8fiYk7XBeX_RendoB4-42" target="Jm8fiYk7XBeX_RendoB4-3" edge="1">
          <mxGeometry relative="1" as="geometry" />
        </mxCell>
        <mxCell id="Jm8fiYk7XBeX_RendoB4-42" value="" style="fontColor=#0066CC;verticalAlign=top;verticalLabelPosition=bottom;labelPosition=center;align=center;html=1;outlineConnect=0;fillColor=#CCCCCC;strokeColor=#6881B3;gradientColor=none;gradientDirection=north;strokeWidth=2;shape=mxgraph.networks.terminal;" parent="1" vertex="1">
          <mxGeometry x="25.77" y="220" width="80" height="65" as="geometry" />
        </mxCell>
        <mxCell id="Jm8fiYk7XBeX_RendoB4-46" value="New Product/category event" style="text;html=1;strokeColor=none;fillColor=none;align=center;verticalAlign=middle;whiteSpace=wrap;rounded=0;" parent="1" vertex="1">
          <mxGeometry x="727" y="776" width="171" height="20" as="geometry" />
        </mxCell>
        <mxCell id="Jm8fiYk7XBeX_RendoB4-47" value="Only at the first time running of batch Job" style="text;html=1;strokeColor=none;fillColor=none;align=center;verticalAlign=middle;whiteSpace=wrap;rounded=0;" parent="1" vertex="1">
          <mxGeometry x="820" y="390" width="40" height="106" as="geometry" />
        </mxCell>
        <mxCell id="Jm8fiYk7XBeX_RendoB4-50" value="Can combine to Single DB?" style="text;html=1;strokeColor=none;fillColor=none;align=center;verticalAlign=middle;whiteSpace=wrap;rounded=0;dashed=1;" parent="1" vertex="1">
          <mxGeometry x="550" y="580" width="170" height="20" as="geometry" />
        </mxCell>
        <mxCell id="Jm8fiYk7XBeX_RendoB4-54" style="edgeStyle=orthogonalEdgeStyle;rounded=0;orthogonalLoop=1;jettySize=auto;html=1;entryX=0.324;entryY=1.029;entryDx=0;entryDy=0;entryPerimeter=0;" parent="1" source="S1BR4_-P_bx4bsNWqFX8-2" target="Jm8fiYk7XBeX_RendoB4-11" edge="1">
          <mxGeometry relative="1" as="geometry">
            <mxPoint x="434.03600000000006" y="434.99199999999996" as="sourcePoint" />
          </mxGeometry>
        </mxCell>
        <mxCell id="Jm8fiYk7XBeX_RendoB4-56" value="Message Queue" style="text;html=1;strokeColor=none;fillColor=none;align=center;verticalAlign=middle;whiteSpace=wrap;rounded=0;dashed=1;rotation=-90;" parent="1" vertex="1">
          <mxGeometry x="940" y="444.5" width="100" height="43.5" as="geometry" />
        </mxCell>
        <mxCell id="Jm8fiYk7XBeX_RendoB4-59" value="Cache" style="text;html=1;strokeColor=none;fillColor=none;align=center;verticalAlign=middle;whiteSpace=wrap;rounded=0;dashed=1;" parent="1" vertex="1">
          <mxGeometry x="493.33" y="285" width="40" height="20" as="geometry" />
        </mxCell>
        <mxCell id="Jm8fiYk7XBeX_RendoB4-61" value="Discovery Service" style="rounded=0;whiteSpace=wrap;html=1;" parent="1" vertex="1">
          <mxGeometry x="299" y="270" width="120" height="60" as="geometry" />
        </mxCell>
        <mxCell id="Jm8fiYk7XBeX_RendoB4-65" value="" style="shadow=1;strokeWidth=1;rounded=1;absoluteArcSize=1;arcSize=2;" parent="1" vertex="1">
          <mxGeometry x="670" y="290" width="120" height="70" as="geometry" />
        </mxCell>
        <mxCell id="Jm8fiYk7XBeX_RendoB4-66" value="Ranking &lt;br&gt;Batch Job" style="dashed=0;connectable=0;html=1;fillColor=#757575;strokeColor=none;shape=mxgraph.gcp2.scheduled_tasks;part=1;labelPosition=right;verticalLabelPosition=middle;align=left;verticalAlign=middle;spacingLeft=5;fontSize=12;" parent="Jm8fiYk7XBeX_RendoB4-65" vertex="1">
          <mxGeometry y="0.5" width="32" height="32" relative="1" as="geometry">
            <mxPoint x="5" y="-16" as="offset" />
          </mxGeometry>
        </mxCell>
        <mxCell id="Jm8fiYk7XBeX_RendoB4-68" value="Only Write/Update Rank" style="text;html=1;strokeColor=none;fillColor=none;align=center;verticalAlign=middle;whiteSpace=wrap;rounded=0;dashed=1;" parent="1" vertex="1">
          <mxGeometry x="600" y="338.63" width="60" height="20" as="geometry" />
        </mxCell>
        <mxCell id="Jm8fiYk7XBeX_RendoB4-69" value="Only Read rank" style="text;html=1;strokeColor=none;fillColor=none;align=center;verticalAlign=middle;whiteSpace=wrap;rounded=0;dashed=1;" parent="1" vertex="1">
          <mxGeometry x="419" y="370" width="50" height="20" as="geometry" />
        </mxCell>
        <mxCell id="Jm8fiYk7XBeX_RendoB4-70" value="Trigger Batch Job &lt;br&gt;on new event" style="html=1;shape=mxgraph.infographic.ribbonSimple;notch1=20;notch2=0;align=center;verticalAlign=middle;fontSize=14;fontStyle=0;flipH=1;fillColor=#FFFFFF;dashed=1;" parent="1" vertex="1">
          <mxGeometry x="790" y="280" width="160" height="40" as="geometry" />
        </mxCell>
        <mxCell id="Jm8fiYk7XBeX_RendoB4-71" value="Access CSV via API" style="text;html=1;strokeColor=none;fillColor=none;align=center;verticalAlign=middle;whiteSpace=wrap;rounded=0;" parent="1" vertex="1">
          <mxGeometry x="790" y="190" width="130" height="20" as="geometry" />
        </mxCell>
        <mxCell id="Jm8fiYk7XBeX_RendoB4-73" value="Scope of Product Ranking Requirement" style="text;html=1;strokeColor=none;fillColor=none;align=center;verticalAlign=middle;whiteSpace=wrap;rounded=0;dashed=1;fontColor=#0000FF;" parent="1" vertex="1">
          <mxGeometry x="280" y="610" width="230" height="20" as="geometry" />
        </mxCell>
        <mxCell id="Jm8fiYk7XBeX_RendoB4-74" value="&lt;font color=&quot;#000000&quot;&gt;Gateway Load Balancer&lt;/font&gt;" style="text;html=1;strokeColor=none;fillColor=none;align=center;verticalAlign=middle;whiteSpace=wrap;rounded=0;dashed=1;fontColor=#0000FF;" parent="1" vertex="1">
          <mxGeometry x="290" y="140" width="150" height="20" as="geometry" />
        </mxCell>
        <mxCell id="Z_XQ1sQ2XsrtAyaytORY-1" value="" style="shape=image;html=1;verticalAlign=top;verticalLabelPosition=bottom;labelBackgroundColor=#ffffff;imageAspect=0;aspect=fixed;image=https://cdn4.iconfinder.com/data/icons/logos-and-brands/512/97_Docker_logo_logos-128.png;dashed=1;fontColor=#0000FF;strokeColor=#0000FF;fillColor=#FFFFFF;" parent="1" vertex="1">
          <mxGeometry x="600" y="156" width="28" height="28" as="geometry" />
        </mxCell>
        <mxCell id="_fS7p2d1YEJGHZ1SbYXN-3" value="" style="shape=image;html=1;verticalAlign=top;verticalLabelPosition=bottom;labelBackgroundColor=#ffffff;imageAspect=0;aspect=fixed;image=https://cdn4.iconfinder.com/data/icons/logos-and-brands/512/97_Docker_logo_logos-128.png;dashed=1;fontColor=#0000FF;strokeColor=#0000FF;fillColor=#FFFFFF;" parent="1" vertex="1">
          <mxGeometry x="741" y="262" width="28" height="28" as="geometry" />
        </mxCell>
        <mxCell id="_fS7p2d1YEJGHZ1SbYXN-4" value="" style="shape=image;html=1;verticalAlign=top;verticalLabelPosition=bottom;labelBackgroundColor=#ffffff;imageAspect=0;aspect=fixed;image=https://cdn4.iconfinder.com/data/icons/logos-and-brands/512/97_Docker_logo_logos-128.png;dashed=1;fontColor=#0000FF;strokeColor=#0000FF;fillColor=#FFFFFF;" parent="1" vertex="1">
          <mxGeometry x="533.33" y="292" width="28" height="28" as="geometry" />
        </mxCell>
        <mxCell id="S1BR4_-P_bx4bsNWqFX8-2" value="Read replica of &lt;br&gt;Product RanK DB" style="outlineConnect=0;dashed=0;verticalLabelPosition=bottom;verticalAlign=top;align=center;html=1;shape=mxgraph.aws3.rds_db_instance_read_replica;fillColor=#2E73B8;gradientColor=none;" parent="1" vertex="1">
          <mxGeometry x="410.5" y="444.5" width="49.5" height="66" as="geometry" />
        </mxCell>
      </root>
    </mxGraphModel>
  </diagram>
  <diagram id="9Op3YcD91cRjsHmRzf-5" name="Page-2">
    <mxGraphModel dx="1662" dy="798" grid="1" gridSize="10" guides="1" tooltips="1" connect="1" arrows="1" fold="1" page="1" pageScale="1" pageWidth="1100" pageHeight="850" math="0" shadow="0">
      <root>
        <mxCell id="RSwNAczLwispNysJDXz--0" />
        <mxCell id="RSwNAczLwispNysJDXz--1" parent="RSwNAczLwispNysJDXz--0" />
        <mxCell id="RSwNAczLwispNysJDXz--2" style="edgeStyle=orthogonalEdgeStyle;rounded=0;orthogonalLoop=1;jettySize=auto;html=1;" parent="RSwNAczLwispNysJDXz--1" source="RSwNAczLwispNysJDXz--3" target="RSwNAczLwispNysJDXz--6" edge="1">
          <mxGeometry relative="1" as="geometry">
            <Array as="points">
              <mxPoint x="501.13" y="560" />
              <mxPoint x="501.13" y="560" />
            </Array>
          </mxGeometry>
        </mxCell>
        <mxCell id="RSwNAczLwispNysJDXz--3" value="" style="image;image=img/lib/atlassian/Bitbucket_Logo.svg;" parent="RSwNAczLwispNysJDXz--1" vertex="1">
          <mxGeometry x="467.13" y="570" width="60" height="50" as="geometry" />
        </mxCell>
        <mxCell id="RSwNAczLwispNysJDXz--4" style="edgeStyle=orthogonalEdgeStyle;rounded=0;orthogonalLoop=1;jettySize=auto;html=1;" parent="RSwNAczLwispNysJDXz--1" source="RSwNAczLwispNysJDXz--6" target="RSwNAczLwispNysJDXz--15" edge="1">
          <mxGeometry relative="1" as="geometry" />
        </mxCell>
        <mxCell id="umpQlkjF9rbZAHh01km9-18" style="edgeStyle=orthogonalEdgeStyle;rounded=0;orthogonalLoop=1;jettySize=auto;html=1;fontColor=#0000FF;" parent="RSwNAczLwispNysJDXz--1" source="RSwNAczLwispNysJDXz--6" target="umpQlkjF9rbZAHh01km9-17" edge="1">
          <mxGeometry relative="1" as="geometry" />
        </mxCell>
        <mxCell id="RSwNAczLwispNysJDXz--6" value="" style="shape=image;html=1;verticalAlign=top;verticalLabelPosition=bottom;labelBackgroundColor=#ffffff;imageAspect=0;aspect=fixed;image=https://cdn0.iconfinder.com/data/icons/octicons/1024/git-branch-128.png" parent="RSwNAczLwispNysJDXz--1" vertex="1">
          <mxGeometry x="476.13" y="490" width="51" height="51" as="geometry" />
        </mxCell>
        <mxCell id="RSwNAczLwispNysJDXz--7" style="edgeStyle=orthogonalEdgeStyle;rounded=0;orthogonalLoop=1;jettySize=auto;html=1;" parent="RSwNAczLwispNysJDXz--1" source="RSwNAczLwispNysJDXz--8" target="RSwNAczLwispNysJDXz--3" edge="1">
          <mxGeometry relative="1" as="geometry" />
        </mxCell>
        <mxCell id="RSwNAczLwispNysJDXz--8" value="" style="shape=image;html=1;verticalAlign=top;verticalLabelPosition=bottom;labelBackgroundColor=#ffffff;imageAspect=0;aspect=fixed;image=https://cdn1.iconfinder.com/data/icons/metro-ui-dock-icon-set--icons-by-dakirby/128/Command_Prompt.png" parent="RSwNAczLwispNysJDXz--1" vertex="1">
          <mxGeometry x="472.63" y="651" width="49" height="49" as="geometry" />
        </mxCell>
        <mxCell id="RSwNAczLwispNysJDXz--9" style="edgeStyle=orthogonalEdgeStyle;rounded=0;orthogonalLoop=1;jettySize=auto;html=1;entryX=0.5;entryY=1;entryDx=0;entryDy=0;" parent="RSwNAczLwispNysJDXz--1" source="RSwNAczLwispNysJDXz--10" target="RSwNAczLwispNysJDXz--8" edge="1">
          <mxGeometry relative="1" as="geometry" />
        </mxCell>
        <mxCell id="RSwNAczLwispNysJDXz--10" value="" style="verticalLabelPosition=bottom;html=1;verticalAlign=top;align=center;strokeColor=none;fillColor=#00BEF2;shape=mxgraph.azure.user;" parent="RSwNAczLwispNysJDXz--1" vertex="1">
          <mxGeometry x="473.38" y="730" width="47.5" height="50" as="geometry" />
        </mxCell>
        <mxCell id="RSwNAczLwispNysJDXz--11" value="Developer" style="text;html=1;strokeColor=none;fillColor=none;align=center;verticalAlign=middle;whiteSpace=wrap;rounded=0;" parent="RSwNAczLwispNysJDXz--1" vertex="1">
          <mxGeometry x="472.63" y="780" width="56.5" height="20" as="geometry" />
        </mxCell>
        <mxCell id="RSwNAczLwispNysJDXz--12" value="Pull request created &amp;amp; merged to dev branch" style="text;html=1;strokeColor=none;fillColor=none;align=center;verticalAlign=middle;whiteSpace=wrap;rounded=0;" parent="RSwNAczLwispNysJDXz--1" vertex="1">
          <mxGeometry x="330" y="585" width="138.25" height="20" as="geometry" />
        </mxCell>
        <mxCell id="RSwNAczLwispNysJDXz--13" value="Dev team commits the code to bitbucket" style="text;html=1;strokeColor=none;fillColor=none;align=center;verticalAlign=middle;whiteSpace=wrap;rounded=0;" parent="RSwNAczLwispNysJDXz--1" vertex="1">
          <mxGeometry x="353.63" y="670" width="116.5" height="20" as="geometry" />
        </mxCell>
        <mxCell id="RSwNAczLwispNysJDXz--14" value="dev Pipeline initiated&amp;nbsp;" style="text;html=1;strokeColor=none;fillColor=none;align=center;verticalAlign=middle;whiteSpace=wrap;rounded=0;" parent="RSwNAczLwispNysJDXz--1" vertex="1">
          <mxGeometry x="330" y="520" width="116.5" height="20" as="geometry" />
        </mxCell>
        <mxCell id="mwp-9KlVtDIJ9-FUC3s--2" style="edgeStyle=orthogonalEdgeStyle;rounded=0;orthogonalLoop=1;jettySize=auto;html=1;entryX=0.5;entryY=1;entryDx=0;entryDy=0;" edge="1" parent="RSwNAczLwispNysJDXz--1" source="RSwNAczLwispNysJDXz--15" target="mwp-9KlVtDIJ9-FUC3s--0">
          <mxGeometry relative="1" as="geometry" />
        </mxCell>
        <mxCell id="RSwNAczLwispNysJDXz--15" value="" style="outlineConnect=0;fontColor=#232F3E;gradientColor=none;fillColor=#277116;strokeColor=none;dashed=0;verticalLabelPosition=bottom;verticalAlign=top;align=center;html=1;fontSize=12;fontStyle=0;aspect=fixed;pointerEvents=1;shape=mxgraph.aws4.iot_analytics_pipeline;" parent="RSwNAczLwispNysJDXz--1" vertex="1">
          <mxGeometry x="384.03" y="480" width="55.71" height="30" as="geometry" />
        </mxCell>
        <mxCell id="umpQlkjF9rbZAHh01km9-1" style="edgeStyle=orthogonalEdgeStyle;rounded=0;orthogonalLoop=1;jettySize=auto;html=1;entryX=0.5;entryY=1;entryDx=0;entryDy=0;entryPerimeter=0;fontColor=#0000FF;" parent="RSwNAczLwispNysJDXz--1" source="LkcUK5ZgQyyExUC18Cla-1" target="LkcUK5ZgQyyExUC18Cla-2" edge="1">
          <mxGeometry relative="1" as="geometry" />
        </mxCell>
        <mxCell id="LkcUK5ZgQyyExUC18Cla-1" value="" style="shape=image;html=1;verticalAlign=top;verticalLabelPosition=bottom;labelBackgroundColor=#ffffff;imageAspect=0;aspect=fixed;image=https://cdn4.iconfinder.com/data/icons/logos-and-brands/512/97_Docker_logo_logos-128.png;dashed=1;fontColor=#0000FF;strokeColor=#0000FF;fillColor=#FFFFFF;" parent="RSwNAczLwispNysJDXz--1" vertex="1">
          <mxGeometry x="280" y="328" width="62" height="62" as="geometry" />
        </mxCell>
        <mxCell id="umpQlkjF9rbZAHh01km9-23" style="edgeStyle=orthogonalEdgeStyle;rounded=0;orthogonalLoop=1;jettySize=auto;html=1;fontColor=#0000FF;" parent="RSwNAczLwispNysJDXz--1" source="LkcUK5ZgQyyExUC18Cla-2" target="umpQlkjF9rbZAHh01km9-20" edge="1">
          <mxGeometry relative="1" as="geometry" />
        </mxCell>
        <mxCell id="LkcUK5ZgQyyExUC18Cla-2" value="" style="points=[[0,0,0],[0.25,0,0],[0.5,0,0],[0.75,0,0],[1,0,0],[0,1,0],[0.25,1,0],[0.5,1,0],[0.75,1,0],[1,1,0],[0,0.25,0],[0,0.5,0],[0,0.75,0],[1,0.25,0],[1,0.5,0],[1,0.75,0]];outlineConnect=0;fontColor=#232F3E;gradientColor=#F78E04;gradientDirection=north;fillColor=#D05C17;strokeColor=#ffffff;dashed=0;verticalLabelPosition=bottom;verticalAlign=top;align=center;html=1;fontSize=12;fontStyle=0;aspect=fixed;shape=mxgraph.aws4.resourceIcon;resIcon=mxgraph.aws4.ecr;" parent="RSwNAczLwispNysJDXz--1" vertex="1">
          <mxGeometry x="430" y="250" width="78" height="78" as="geometry" />
        </mxCell>
        <mxCell id="LkcUK5ZgQyyExUC18Cla-5" value="Docker Image Created" style="text;html=1;strokeColor=none;fillColor=none;align=center;verticalAlign=middle;whiteSpace=wrap;rounded=0;" parent="RSwNAczLwispNysJDXz--1" vertex="1">
          <mxGeometry x="313.5" y="370" width="116.5" height="20" as="geometry" />
        </mxCell>
        <mxCell id="LkcUK5ZgQyyExUC18Cla-6" value="Image pushed to Docker Trusted Registry" style="text;html=1;strokeColor=none;fillColor=none;align=center;verticalAlign=middle;whiteSpace=wrap;rounded=0;" parent="RSwNAczLwispNysJDXz--1" vertex="1">
          <mxGeometry x="460" y="350" width="116.5" height="20" as="geometry" />
        </mxCell>
        <mxCell id="umpQlkjF9rbZAHh01km9-4" style="edgeStyle=orthogonalEdgeStyle;rounded=0;orthogonalLoop=1;jettySize=auto;html=1;fontColor=#0000FF;entryX=0;entryY=0.5;entryDx=0;entryDy=0;entryPerimeter=0;" parent="RSwNAczLwispNysJDXz--1" source="umpQlkjF9rbZAHh01km9-0" target="LkcUK5ZgQyyExUC18Cla-2" edge="1">
          <mxGeometry relative="1" as="geometry">
            <mxPoint x="420" y="290" as="targetPoint" />
            <Array as="points">
              <mxPoint x="220" y="341" />
              <mxPoint x="220" y="289" />
            </Array>
          </mxGeometry>
        </mxCell>
        <mxCell id="umpQlkjF9rbZAHh01km9-7" style="edgeStyle=orthogonalEdgeStyle;rounded=0;orthogonalLoop=1;jettySize=auto;html=1;entryX=0.5;entryY=1;entryDx=0;entryDy=0;fontColor=#0000FF;" parent="RSwNAczLwispNysJDXz--1" source="umpQlkjF9rbZAHh01km9-0" target="umpQlkjF9rbZAHh01km9-6" edge="1">
          <mxGeometry relative="1" as="geometry" />
        </mxCell>
        <mxCell id="umpQlkjF9rbZAHh01km9-0" value="" style="aspect=fixed;html=1;points=[];align=center;image;fontSize=12;image=img/lib/azure2/general/Website_Staging.svg;dashed=1;fontColor=#0000FF;strokeColor=#0000FF;fillColor=#FFFFFF;" parent="RSwNAczLwispNysJDXz--1" vertex="1">
          <mxGeometry x="81.25" y="300" width="74" height="80.94" as="geometry" />
        </mxCell>
        <mxCell id="umpQlkjF9rbZAHh01km9-3" value="Dev Test environment" style="text;html=1;strokeColor=none;fillColor=none;align=center;verticalAlign=middle;whiteSpace=wrap;rounded=0;" parent="RSwNAczLwispNysJDXz--1" vertex="1">
          <mxGeometry x="50" y="390" width="116.5" height="20" as="geometry" />
        </mxCell>
        <mxCell id="umpQlkjF9rbZAHh01km9-5" value="Pull Image" style="text;html=1;strokeColor=none;fillColor=none;align=center;verticalAlign=middle;whiteSpace=wrap;rounded=0;" parent="RSwNAczLwispNysJDXz--1" vertex="1">
          <mxGeometry x="230" y="290" width="116.5" height="20" as="geometry" />
        </mxCell>
        <mxCell id="umpQlkjF9rbZAHh01km9-14" style="edgeStyle=orthogonalEdgeStyle;rounded=0;orthogonalLoop=1;jettySize=auto;html=1;fontColor=#0000FF;" parent="RSwNAczLwispNysJDXz--1" source="umpQlkjF9rbZAHh01km9-6" target="umpQlkjF9rbZAHh01km9-12" edge="1">
          <mxGeometry relative="1" as="geometry" />
        </mxCell>
        <mxCell id="umpQlkjF9rbZAHh01km9-6" value="" style="shape=image;html=1;verticalAlign=top;verticalLabelPosition=bottom;labelBackgroundColor=#ffffff;imageAspect=0;aspect=fixed;image=https://cdn4.iconfinder.com/data/icons/online-marketing-hand-drawn-vol-3/52/monitor__check__mark__online__testing__screen__pc-128.png;dashed=1;fontColor=#0000FF;strokeColor=#0000FF;fillColor=#FFFFFF;" parent="RSwNAczLwispNysJDXz--1" vertex="1">
          <mxGeometry x="150" y="190" width="70" height="70" as="geometry" />
        </mxCell>
        <mxCell id="umpQlkjF9rbZAHh01km9-8" value="Acceptance&lt;br&gt;&amp;nbsp;Testing" style="text;html=1;strokeColor=none;fillColor=none;align=center;verticalAlign=middle;whiteSpace=wrap;rounded=0;" parent="RSwNAczLwispNysJDXz--1" vertex="1">
          <mxGeometry x="50" y="210" width="116.5" height="20" as="geometry" />
        </mxCell>
        <mxCell id="umpQlkjF9rbZAHh01km9-12" value="" style="shape=image;html=1;verticalAlign=top;verticalLabelPosition=bottom;labelBackgroundColor=#ffffff;imageAspect=0;aspect=fixed;image=https://cdn3.iconfinder.com/data/icons/covid-test-3/32/23_Message_results-128.png;dashed=1;fontColor=#0000FF;strokeColor=#0000FF;fillColor=#FFFFFF;" parent="RSwNAczLwispNysJDXz--1" vertex="1">
          <mxGeometry x="162" y="80" width="68" height="68" as="geometry" />
        </mxCell>
        <mxCell id="umpQlkjF9rbZAHh01km9-13" value="Update Results" style="text;html=1;strokeColor=none;fillColor=none;align=center;verticalAlign=middle;whiteSpace=wrap;rounded=0;" parent="RSwNAczLwispNysJDXz--1" vertex="1">
          <mxGeometry x="60" y="140" width="116.5" height="20" as="geometry" />
        </mxCell>
        <mxCell id="umpQlkjF9rbZAHh01km9-22" style="edgeStyle=orthogonalEdgeStyle;rounded=0;orthogonalLoop=1;jettySize=auto;html=1;fontColor=#0000FF;" parent="RSwNAczLwispNysJDXz--1" source="umpQlkjF9rbZAHh01km9-17" target="umpQlkjF9rbZAHh01km9-20" edge="1">
          <mxGeometry relative="1" as="geometry" />
        </mxCell>
        <mxCell id="umpQlkjF9rbZAHh01km9-17" value="" style="outlineConnect=0;fontColor=#232F3E;gradientColor=none;fillColor=#277116;strokeColor=none;dashed=0;verticalLabelPosition=bottom;verticalAlign=top;align=center;html=1;fontSize=12;fontStyle=0;aspect=fixed;pointerEvents=1;shape=mxgraph.aws4.iot_analytics_pipeline;" parent="RSwNAczLwispNysJDXz--1" vertex="1">
          <mxGeometry x="576.5" y="470" width="55.71" height="30" as="geometry" />
        </mxCell>
        <mxCell id="umpQlkjF9rbZAHh01km9-19" value="prod Pipeline initiated&amp;nbsp;" style="text;html=1;strokeColor=none;fillColor=none;align=center;verticalAlign=middle;whiteSpace=wrap;rounded=0;" parent="RSwNAczLwispNysJDXz--1" vertex="1">
          <mxGeometry x="546.11" y="521" width="116.5" height="20" as="geometry" />
        </mxCell>
        <mxCell id="umpQlkjF9rbZAHh01km9-25" style="edgeStyle=orthogonalEdgeStyle;rounded=0;orthogonalLoop=1;jettySize=auto;html=1;entryX=0.009;entryY=0.648;entryDx=0;entryDy=0;entryPerimeter=0;fontColor=#0000FF;" parent="RSwNAczLwispNysJDXz--1" source="umpQlkjF9rbZAHh01km9-20" target="umpQlkjF9rbZAHh01km9-24" edge="1">
          <mxGeometry relative="1" as="geometry" />
        </mxCell>
        <mxCell id="umpQlkjF9rbZAHh01km9-20" value="" style="shape=image;html=1;verticalAlign=top;verticalLabelPosition=bottom;labelBackgroundColor=#ffffff;imageAspect=0;aspect=fixed;image=https://cdn4.iconfinder.com/data/icons/logos-and-brands/512/97_Docker_logo_logos-128.png;dashed=1;fontColor=#0000FF;strokeColor=#0000FF;fillColor=#FFFFFF;" parent="RSwNAczLwispNysJDXz--1" vertex="1">
          <mxGeometry x="662.61" y="328" width="108" height="108" as="geometry" />
        </mxCell>
        <mxCell id="umpQlkjF9rbZAHh01km9-21" value="Pull Docker &lt;br&gt;Image" style="text;html=1;strokeColor=none;fillColor=none;align=center;verticalAlign=middle;whiteSpace=wrap;rounded=0;" parent="RSwNAczLwispNysJDXz--1" vertex="1">
          <mxGeometry x="576.5" y="340" width="116.5" height="20" as="geometry" />
        </mxCell>
        <mxCell id="umpQlkjF9rbZAHh01km9-24" value="" style="shape=image;html=1;verticalAlign=top;verticalLabelPosition=bottom;labelBackgroundColor=#ffffff;imageAspect=0;aspect=fixed;image=https://cdn2.iconfinder.com/data/icons/artificial-intelligence-6/64/ArtificialIntelligence2-128.png;dashed=1;fontColor=#0000FF;strokeColor=#0000FF;fillColor=#FFFFFF;" parent="RSwNAczLwispNysJDXz--1" vertex="1">
          <mxGeometry x="800" y="202" width="108" height="108" as="geometry" />
        </mxCell>
        <mxCell id="umpQlkjF9rbZAHh01km9-26" value="Deploy Image based on deployment Strategy" style="text;html=1;strokeColor=none;fillColor=none;align=center;verticalAlign=middle;whiteSpace=wrap;rounded=0;" parent="RSwNAczLwispNysJDXz--1" vertex="1">
          <mxGeometry x="791.5" y="320" width="116.5" height="20" as="geometry" />
        </mxCell>
        <mxCell id="mwp-9KlVtDIJ9-FUC3s--4" style="edgeStyle=orthogonalEdgeStyle;rounded=0;orthogonalLoop=1;jettySize=auto;html=1;" edge="1" parent="RSwNAczLwispNysJDXz--1" source="mwp-9KlVtDIJ9-FUC3s--0" target="LkcUK5ZgQyyExUC18Cla-1">
          <mxGeometry relative="1" as="geometry">
            <Array as="points">
              <mxPoint x="300" y="410" />
              <mxPoint x="311" y="410" />
            </Array>
          </mxGeometry>
        </mxCell>
        <mxCell id="mwp-9KlVtDIJ9-FUC3s--0" value="" style="shape=image;html=1;verticalAlign=top;verticalLabelPosition=bottom;labelBackgroundColor=#ffffff;imageAspect=0;aspect=fixed;image=https://cdn4.iconfinder.com/data/icons/online-marketing-hand-drawn-vol-3/52/monitor__check__mark__online__testing__screen__pc-128.png;dashed=1;fontColor=#0000FF;strokeColor=#0000FF;fillColor=#FFFFFF;" vertex="1" parent="RSwNAczLwispNysJDXz--1">
          <mxGeometry x="280" y="428" width="40" height="40" as="geometry" />
        </mxCell>
        <mxCell id="mwp-9KlVtDIJ9-FUC3s--6" value="Unit &lt;br&gt;Testing" style="text;html=1;strokeColor=none;fillColor=none;align=center;verticalAlign=middle;whiteSpace=wrap;rounded=0;" vertex="1" parent="RSwNAczLwispNysJDXz--1">
          <mxGeometry x="220" y="436" width="60" height="20" as="geometry" />
        </mxCell>
      </root>
    </mxGraphModel>
  </diagram>
</mxfile>
